<svg width="100%" height="100%" viewBox="0 0 1236 809" xmlns="http://www.w3.org/2000/svg">
  <rect width="1236" height="809" fill="#272727"/>
  <rect width="481" height="809" transform="translate(411)" fill="#3947F2"/>
  
  <rect x="713.803" y="79.4665" width="109.143" height="104.758" rx="20" transform="rotate(19 713.803 79.4665)" fill="#FD8C48"/>
  <path d="M811 132C811 132 755 132 750 141C745 150 693 147 693 147" stroke="#F4B235"/>
  <path d="M699 183C749.522 165.962 773.012 158.245 803 149M699 124L789 108" stroke="#F4B235"/>
  <path d="M740 200C762.15 173.14 774.393 166.911 796 171" stroke="#F4B235"/>
  
  <rect x="769.803" y="627.466" width="109.143" height="104.758" rx="20" transform="rotate(19 769.803 627.466)" fill="#FD8C48"/>
  <path d="M867 680C867 680 811 680 806 689C801 698 749 695 749 695" stroke="#F4B235"/>
  <path d="M755 731C805.522 713.962 829.012 706.245 859 697M755 672L845 656" stroke="#F4B235"/>
  <path d="M796 748C818.15 721.14 830.393 714.911 852 719" stroke="#F4B235"/>
  
  <path d="M675.073 293.373C680.1 295.72 681.269 302.349 677.348 306.275L637.578 346.091C633.002 350.672 625.164 348.203 624.039 341.826L612.82 278.198C611.695 271.821 618.217 266.82 624.083 269.56L675.073 293.373Z" fill="#3947F2" stroke="#F4B235" stroke-width="4"/>
  
  <circle cx="800" cy="335" r="38" fill="#FD8C48"/>
  <ellipse cx="673" cy="534" rx="39" ry="38" fill="#FD8C48"/>
  <ellipse cx="830.5" cy="48.5" rx="36.5" ry="35.5" fill="#F17EBC"/>
  
  <path d="M842.073 501.373C847.1 503.72 848.269 510.349 844.348 514.275L804.578 554.091C800.002 558.672 792.164 556.203 791.039 549.826L779.82 486.198C778.695 479.821 785.217 474.82 791.083 477.56L842.073 501.373Z" fill="#3947F2" stroke="#F4B235" stroke-width="4"/>
  
  <rect x="223" y="622" width="364" height="57" rx="28.5" fill="#F17EBC"/>
  <rect x="223" y="698" width="364" height="57" rx="28.5" fill="#F17EBC"/>
  <rect x="224" y="542" width="364" height="57" rx="28.5" fill="#F17EBC"/>

  <circle cx="258" cy="650" r="24" fill="white"/>
  <circle cx="258" cy="726" r="24" fill="white"/>
  <circle cx="259" cy="570" r="24" fill="white"/>
  
  <path d="M266.293 644.293L255 655.586L250.707 651.293L249.293 652.707L255 658.414L267.707 645.707L266.293 644.293Z" fill="#3947F2"/>
  <path d="M266.293 720.293L255 731.586L250.707 727.293L249.293 728.707L255 734.414L267.707 721.707L266.293 720.293Z" fill="#3947F2"/>
  <path d="M267.293 564.293L256 575.586L251.707 571.293L250.293 572.707L256 578.414L268.707 565.707L267.293 564.293Z" fill="#3947F2"/>
</svg>
