<svg xmlns="http://www.w3.org/2000/svg" viewBox="0 0 1920 1080" width="1920" height="1080">
  <!-- Background split into two sections -->
  <rect x="0" y="0" width="960" height="1080" fill="#1a1a1a" />
  <rect x="960" y="0" width="960" height="1080" fill="#2d46f0" />

  <!-- Right side shapes -->
  <circle cx="1600" cy="200" r="50" fill="#ff73ac" />
  <rect x="1450" y="400" width="100" height="100" fill="#ff9933" transform="rotate(10,1500,450)" />
  <circle cx="1500" cy="600" r="50" fill="#ff9933" />
  <polygon points="1700,500 1740,560 1660,560" fill="none" stroke="#ff9933" stroke-width="5" />
  <polygon points="1700,800 1740,860 1660,860" fill="none" stroke="#ff9933" stroke-width="5" />

  <!-- Left side buttons -->
  <g transform="translate(300,400)">
    <rect x="0" y="0" width="500" height="70" rx="35" fill="#ff73ac" />
    <circle cx="35" cy="35" r="20" fill="#fff" />
    <path d="M25,35 L30,45 L45,25" stroke="#1a1a1a" stroke-width="3" fill="none" />
  </g>

  <g transform="translate(300,500)">
    <rect x="0" y="0" width="500" height="70" rx="35" fill="#ff73ac" />
    <circle cx="35" cy="35" r="20" fill="#fff" />
    <path d="M25,35 L30,45 L45,25" stroke="#1a1a1a" stroke-width="3" fill="none" />
  </g>

  <g transform="translate(300,600)">
    <rect x="0" y="0" width="500" height="70" rx="35" fill="#ff73ac" />
    <circle cx="35" cy="35" r="20" fill="#fff" />
    <path d="M25,35 L30,45 L45,25" stroke="#1a1a1a" stroke-width="3" fill="none" />
  </g>
</svg>
