<svg width="66" height="31" viewBox="0 0 66 31" fill="none" xmlns="http://www.w3.org/2000/svg">
<path d="M6.67898 0.90909V30H0.528409V0.90909H6.67898ZM38.4723 15.4545C38.4723 18.6269 37.871 21.3258 36.6683 23.5511C35.4751 25.7765 33.8464 27.4763 31.782 28.6506C29.727 29.8153 27.4164 30.3977 24.8501 30.3977C22.2649 30.3977 19.9448 29.8106 17.8899 28.6364C15.835 27.4621 14.2109 25.7623 13.0178 23.5369C11.8246 21.3116 11.228 18.6174 11.228 15.4545C11.228 12.2822 11.8246 9.58333 13.0178 7.35795C14.2109 5.13258 15.835 3.4375 17.8899 2.27273C19.9448 1.09848 22.2649 0.511363 24.8501 0.511363C27.4164 0.511363 29.727 1.09848 31.782 2.27273C33.8464 3.4375 35.4751 5.13258 36.6683 7.35795C37.871 9.58333 38.4723 12.2822 38.4723 15.4545ZM32.2365 15.4545C32.2365 13.3996 31.9287 11.6667 31.3132 10.2557C30.7071 8.8447 29.8501 7.77462 28.7422 7.04545C27.6342 6.31629 26.3369 5.9517 24.8501 5.9517C23.3634 5.9517 22.0661 6.31629 20.9581 7.04545C19.8501 7.77462 18.9884 8.8447 18.3729 10.2557C17.7668 11.6667 17.4638 13.3996 17.4638 15.4545C17.4638 17.5095 17.7668 19.2424 18.3729 20.6534C18.9884 22.0644 19.8501 23.1345 20.9581 23.8636C22.0661 24.5928 23.3634 24.9574 24.8501 24.9574C26.3369 24.9574 27.6342 24.5928 28.7422 23.8636C29.8501 23.1345 30.7071 22.0644 31.3132 20.6534C31.9287 19.2424 32.2365 17.5095 32.2365 15.4545ZM58.8097 9.27557C58.696 8.12973 58.2083 7.23958 57.3466 6.60511C56.4848 5.97064 55.3153 5.65341 53.8381 5.65341C52.8343 5.65341 51.9867 5.79545 51.2955 6.07955C50.6042 6.35417 50.0739 6.73769 49.7045 7.23011C49.3447 7.72254 49.1648 8.28125 49.1648 8.90625C49.1458 9.42708 49.2547 9.88163 49.4915 10.2699C49.7377 10.6581 50.0739 10.9943 50.5 11.2784C50.9261 11.553 51.4186 11.7945 51.9773 12.0028C52.536 12.2017 53.1326 12.3722 53.767 12.5142L56.3807 13.1392C57.6496 13.4233 58.8144 13.8021 59.875 14.2756C60.9356 14.7491 61.8542 15.3314 62.6307 16.0227C63.4072 16.714 64.0085 17.5284 64.4347 18.4659C64.8703 19.4034 65.0928 20.4782 65.1023 21.6903C65.0928 23.4706 64.6383 25.0142 63.7386 26.321C62.8485 27.6184 61.5606 28.6269 59.875 29.3466C58.1989 30.0568 56.1771 30.4119 53.8097 30.4119C51.4612 30.4119 49.4157 30.0521 47.6733 29.3324C45.9403 28.6127 44.5862 27.5473 43.6108 26.1364C42.6449 24.7159 42.1383 22.9593 42.0909 20.8665H48.0426C48.1089 21.8419 48.3883 22.6562 48.8807 23.3097C49.3826 23.9536 50.0502 24.4413 50.8835 24.7727C51.7263 25.0947 52.678 25.2557 53.7386 25.2557C54.7803 25.2557 55.6847 25.1042 56.4517 24.8011C57.2282 24.4981 57.8295 24.0767 58.2557 23.5369C58.6818 22.9972 58.8949 22.3769 58.8949 21.6761C58.8949 21.0227 58.7008 20.4735 58.3125 20.0284C57.9337 19.5833 57.375 19.2045 56.6364 18.892C55.9072 18.5795 55.0123 18.2955 53.9517 18.0398L50.7841 17.2443C48.3314 16.6477 46.3949 15.715 44.9744 14.446C43.554 13.1771 42.8485 11.4678 42.858 9.31818C42.8485 7.55682 43.3172 6.01799 44.2642 4.7017C45.2206 3.38542 46.5322 2.35795 48.1989 1.61932C49.8655 0.880681 51.7595 0.511363 53.8807 0.511363C56.0398 0.511363 57.9242 0.880681 59.5341 1.61932C61.1534 2.35795 62.4129 3.38542 63.3125 4.7017C64.2121 6.01799 64.6761 7.54261 64.7045 9.27557H58.8097Z" fill="white"/>
</svg>
