<svg width="85" height="24" viewBox="0 0 85 24" fill="none" xmlns="http://www.w3.org/2000/svg">
<path d="M0.0227273 24V0.727272H4.94318V19.9432H14.9205V24H0.0227273ZM18.179 24V0.727272H33.8608V4.78409H23.0994V10.3295H33.054V14.3864H23.0994V19.9432H33.9062V24H18.179ZM37.7727 0.727272H43.8409L50.25 16.3636H50.5227L56.9318 0.727272H63V24H58.2273V8.85227H58.0341L52.0114 23.8864H48.7614L42.7386 8.79545H42.5455V24H37.7727V0.727272ZM67.054 24V0.727272H76.2358C78.0009 0.727272 79.5047 1.06439 80.7472 1.73864C81.9896 2.4053 82.9366 3.33333 83.5881 4.52273C84.2472 5.70454 84.5767 7.06818 84.5767 8.61364C84.5767 10.1591 84.2434 11.5227 83.5767 12.7045C82.91 13.8864 81.9441 14.8068 80.679 15.4659C79.4214 16.125 77.8987 16.4545 76.1108 16.4545H70.2585V12.5114H75.3153C76.2623 12.5114 77.0426 12.3485 77.6562 12.0227C78.2775 11.6894 78.7396 11.2311 79.0426 10.6477C79.3532 10.0568 79.5085 9.37879 79.5085 8.61364C79.5085 7.84091 79.3532 7.16667 79.0426 6.59091C78.7396 6.00757 78.2775 5.55682 77.6562 5.23864C77.035 4.91288 76.2472 4.75 75.2926 4.75H71.9744V24H67.054Z" fill="#7F72E4"/>
</svg>
