<svg width="14" height="4" viewBox="0 0 14 4" fill="none" xmlns="http://www.w3.org/2000/svg">
<path d="M7 0C6.60444 0 6.21776 0.117298 5.88886 0.337061C5.55996 0.556824 5.30362 0.869181 5.15224 1.23463C5.00087 1.60009 4.96126 2.00222 5.03843 2.39018C5.1156 2.77814 5.30608 3.13451 5.58579 3.41421C5.86549 3.69392 6.22186 3.8844 6.60982 3.96157C6.99778 4.03874 7.39992 3.99913 7.76537 3.84776C8.13082 3.69638 8.44318 3.44004 8.66294 3.11114C8.8827 2.78224 9 2.39556 9 2C9 1.46957 8.78929 0.960859 8.41422 0.585786C8.03914 0.210714 7.53044 0 7 0ZM7 3C6.80222 3 6.60888 2.94135 6.44443 2.83147C6.27998 2.72159 6.15181 2.56541 6.07612 2.38268C6.00043 2.19996 5.98063 1.99889 6.01922 1.80491C6.0578 1.61093 6.15304 1.43275 6.2929 1.29289C6.43275 1.15304 6.61093 1.0578 6.80491 1.01921C6.99889 0.980629 7.19996 1.00043 7.38269 1.07612C7.56541 1.15181 7.72159 1.27998 7.83147 1.44443C7.94135 1.60888 8 1.80222 8 2C8 2.26522 7.89464 2.51957 7.70711 2.70711C7.51957 2.89464 7.26522 3 7 3ZM2 0C1.60444 0 1.21776 0.117298 0.88886 0.337061C0.559962 0.556824 0.303617 0.869181 0.152242 1.23463C0.000866562 1.60009 -0.0387401 2.00222 0.0384303 2.39018C0.115601 2.77814 0.306082 3.13451 0.585787 3.41421C0.865492 3.69392 1.22186 3.8844 1.60982 3.96157C1.99778 4.03874 2.39992 3.99913 2.76537 3.84776C3.13082 3.69638 3.44318 3.44004 3.66294 3.11114C3.8827 2.78224 4 2.39556 4 2C4 1.46957 3.78929 0.960859 3.41422 0.585786C3.03914 0.210714 2.53043 0 2 0ZM2 3C1.80222 3 1.60888 2.94135 1.44443 2.83147C1.27998 2.72159 1.15181 2.56541 1.07612 2.38268C1.00043 2.19996 0.98063 1.99889 1.01922 1.80491C1.0578 1.61093 1.15304 1.43275 1.29289 1.29289C1.43275 1.15304 1.61093 1.0578 1.80491 1.01921C1.99889 0.980629 2.19996 1.00043 2.38268 1.07612C2.56541 1.15181 2.72159 1.27998 2.83147 1.44443C2.94135 1.60888 3 1.80222 3 2C3 2.26522 2.89464 2.51957 2.70711 2.70711C2.51957 2.89464 2.26522 3 2 3ZM12 0C11.6044 0 11.2178 0.117298 10.8889 0.337061C10.56 0.556824 10.3036 0.869181 10.1522 1.23463C10.0009 1.60009 9.96126 2.00222 10.0384 2.39018C10.1156 2.77814 10.3061 3.13451 10.5858 3.41421C10.8655 3.69392 11.2219 3.8844 11.6098 3.96157C11.9978 4.03874 12.3999 3.99913 12.7654 3.84776C13.1308 3.69638 13.4432 3.44004 13.6629 3.11114C13.8827 2.78224 14 2.39556 14 2C14 1.46957 13.7893 0.960859 13.4142 0.585786C13.0391 0.210714 12.5304 0 12 0ZM12 3C11.8022 3 11.6089 2.94135 11.4444 2.83147C11.28 2.72159 11.1518 2.56541 11.0761 2.38268C11.0004 2.19996 10.9806 1.99889 11.0192 1.80491C11.0578 1.61093 11.153 1.43275 11.2929 1.29289C11.4327 1.15304 11.6109 1.0578 11.8049 1.01921C11.9989 0.980629 12.2 1.00043 12.3827 1.07612C12.5654 1.15181 12.7216 1.27998 12.8315 1.44443C12.9414 1.60888 13 1.80222 13 2C13 2.26522 12.8946 2.51957 12.7071 2.70711C12.5196 2.89464 12.2652 3 12 3Z" fill="#828084"/>
</svg>
